<?xml version="1.0" standalone="no"?>
<!DOCTYPE svg PUBLIC "-//W3C//DTD SVG 20010904//EN"
 "http://www.w3.org/TR/2001/REC-SVG-20010904/DTD/svg10.dtd">
<svg version="1.0" xmlns="http://www.w3.org/2000/svg"
 width="1280.000000pt" height="853.000000pt" viewBox="0 0 1280.000000 853.000000"
 preserveAspectRatio="xMidYMid meet">
<metadata>
Created by potrace 1.15, written by Peter Selinger 2001-2017
</metadata>
<g transform="translate(0.000000,853.000000) scale(0.100000,-0.100000)"
fill="#000" stroke="none">
<path d="M1864 8366 c4 -41 13 -106 20 -144 15 -78 13 -81 -59 -82 -16 0 -62
-9 -101 -19 -70 -18 -73 -18 -145 1 -98 25 -233 27 -326 4 -68 -17 -76 -17
-145 -1 -98 23 -242 21 -334 -3 -70 -19 -72 -19 -145 0 -95 25 -222 26 -321 4
-70 -16 -82 -16 -150 -2 -40 8 -92 17 -116 20 l-42 6 0 -91 0 -91 43 7 c23 3
75 13 115 22 68 16 76 16 150 -2 99 -25 234 -25 328 -2 68 18 74 18 135 1 88
-24 252 -23 339 3 64 19 67 19 135 0 96 -26 248 -27 341 -4 66 17 75 17 132 3
33 -9 94 -19 135 -22 72 -7 75 -8 81 -35 3 -15 1 -78 -5 -140 -12 -142 -9
-151 43 -147 l40 3 4 90 c5 134 12 168 34 162 10 -3 28 2 39 10 18 12 24 12
43 -1 28 -20 33 -20 51 -1 13 13 16 8 22 -38 4 -28 15 -87 26 -131 10 -43 19
-80 19 -82 0 -2 22 -4 49 -4 l48 0 -14 53 c-28 107 -43 201 -33 211 6 6 10 18
10 28 0 15 9 18 51 18 27 0 95 9 150 21 96 20 101 20 157 3 79 -24 243 -23
337 2 69 19 72 19 135 1 88 -26 252 -27 342 -4 64 17 71 17 130 1 87 -24 242
-24 336 0 72 19 76 19 150 0 99 -24 235 -24 328 -1 66 17 75 17 133 2 34 -8
97 -18 140 -22 77 -6 78 -6 90 -38 9 -26 7 -53 -8 -141 -10 -60 -21 -116 -23
-124 -2 -12 7 -15 41 -15 45 0 45 0 56 46 7 25 18 82 25 128 11 71 15 82 31
78 10 -3 27 2 39 10 13 9 25 12 29 6 12 -18 39 -21 59 -8 18 14 20 12 26 -32
3 -25 6 -86 6 -134 l0 -89 39 0 c39 0 40 0 47 45 3 25 3 78 -1 119 -3 40 -3
89 0 108 l7 35 79 6 c43 4 106 14 140 22 58 15 67 15 133 -2 94 -24 247 -22
336 4 64 19 67 19 135 0 94 -25 257 -27 344 -3 61 17 67 17 135 -1 95 -24 247
-22 337 4 64 19 68 19 130 2 110 -31 201 -34 317 -10 96 20 106 21 162 6 33
-9 96 -18 140 -22 l79 -6 7 -45 c4 -24 2 -89 -5 -143 -15 -139 -17 -131 27
-127 l37 3 12 80 c6 44 14 102 18 128 5 41 9 47 25 42 12 -4 26 1 37 12 17 17
19 17 36 1 21 -22 31 -22 50 -4 12 13 15 8 21 -37 3 -29 6 -89 6 -134 l0 -83
46 0 47 0 -7 129 c-9 174 -8 176 97 184 45 3 110 13 144 22 58 15 67 15 130
-2 91 -23 236 -23 331 2 72 18 76 18 150 -1 99 -24 235 -24 328 -1 68 18 74
18 135 1 87 -24 260 -22 348 4 63 18 65 18 130 -1 90 -26 242 -28 337 -4 66
17 75 17 133 2 34 -8 97 -18 140 -22 75 -6 79 -7 84 -32 3 -14 -10 -83 -29
-154 -19 -70 -34 -130 -34 -132 0 -3 20 -5 44 -5 34 0 46 4 50 18 2 9 17 68
33 130 26 106 29 113 50 107 13 -3 28 1 37 10 14 14 18 14 39 1 21 -14 25 -14
45 0 l22 15 0 -135 0 -136 44 0 43 0 -5 115 c-4 96 -2 122 12 154 l18 38 83 6
c45 3 111 13 145 22 59 15 68 15 134 -2 95 -24 247 -22 337 4 65 19 67 19 130
1 88 -26 261 -28 348 -4 61 17 67 17 135 -1 93 -23 229 -23 328 1 72 18 80 18
145 3 37 -9 92 -19 121 -23 l52 -7 0 92 0 92 -52 -6 c-29 -4 -85 -13 -124 -22
-66 -15 -76 -15 -145 2 -96 24 -222 23 -320 -3 -76 -19 -77 -19 -150 0 -98 25
-232 27 -326 4 -70 -17 -76 -17 -150 0 -102 23 -236 21 -327 -5 -69 -19 -71
-19 -146 0 -41 10 -104 20 -140 23 l-64 4 3 54 c1 29 6 85 11 123 15 115 15
117 -22 113 -36 -3 -38 -8 -61 -168 -11 -73 -15 -85 -31 -82 -10 2 -26 -4 -36
-13 -15 -14 -18 -14 -30 0 -16 19 -34 19 -53 0 -13 -13 -16 -13 -27 0 -15 18
-41 19 -59 3 -11 -11 -12 11 -6 125 l7 138 -39 -3 -38 -3 -14 -142 -14 -142
-56 -6 c-31 -4 -90 -15 -132 -25 -74 -18 -77 -18 -145 1 -91 26 -225 28 -327
5 -74 -17 -80 -17 -150 0 -94 23 -228 21 -326 -4 -73 -19 -74 -19 -150 0 -97
26 -222 27 -322 3 -73 -17 -79 -17 -150 0 -97 24 -222 23 -322 -3 -75 -20 -79
-20 -150 -2 -39 10 -102 21 -139 25 l-68 7 0 61 c0 34 -3 99 -7 145 l-6 82
-38 0 -39 0 0 -129 c0 -121 -1 -129 -19 -124 -10 2 -25 -2 -32 -9 -11 -13 -17
-13 -42 1 -27 15 -30 15 -40 -1 -10 -15 -13 -15 -35 0 -19 12 -28 13 -43 4
-10 -7 -21 -12 -23 -12 -2 0 -9 28 -15 63 -6 34 -19 94 -29 132 -18 70 -18 70
-55 73 -44 4 -44 4 -18 -110 11 -46 22 -104 26 -130 l7 -46 -48 -6 c-27 -4
-86 -14 -131 -25 -80 -18 -84 -18 -155 1 -97 25 -232 27 -325 4 -70 -17 -76
-17 -150 0 -102 23 -227 22 -324 -4 -76 -19 -78 -19 -150 0 -97 24 -223 26
-321 4 -74 -17 -82 -17 -155 -1 -105 24 -229 23 -323 -3 -75 -21 -76 -21 -145
-1 -38 10 -85 19 -105 19 -59 0 -66 11 -45 67 10 26 38 87 61 135 24 48 44 90
44 93 0 3 -20 5 -45 5 -54 0 -58 -6 -120 -152 -40 -93 -47 -103 -68 -100 -13
2 -30 -4 -37 -13 -12 -14 -15 -14 -31 1 -19 17 -69 13 -69 -6 0 -5 -13 -1 -30
8 -24 14 -33 15 -50 4 -20 -12 -20 -10 -20 123 l0 136 -47 -3 -48 -3 -3 -142
-3 -142 -57 -6 c-31 -4 -90 -15 -131 -25 -71 -17 -76 -17 -150 2 -97 26 -222
27 -322 3 -73 -17 -79 -17 -150 0 -94 23 -229 22 -326 -3 -71 -18 -75 -18
-145 0 -98 25 -233 26 -327 3 -72 -17 -77 -17 -150 0 -97 23 -232 22 -328 -3
-70 -18 -76 -18 -143 -1 -38 9 -100 20 -138 24 l-69 7 -9 141 -9 142 -44 3
-44 3 6 -130 6 -131 -23 6 c-14 3 -27 0 -35 -10 -11 -14 -15 -14 -38 1 -21 14
-28 14 -45 4 -17 -10 -25 -10 -45 0 -19 10 -29 10 -43 1 -23 -14 -25 -11 -45
125 -22 140 -19 133 -61 133 l-37 0 7 -74z"/>
<path d="M474 6923 c3 -54 9 -122 12 -150 l6 -53 -63 -1 c-35 0 -93 -8 -129
-17 -61 -16 -69 -16 -140 0 -41 10 -94 18 -117 18 l-43 0 0 -86 0 -87 52 7
c29 4 81 14 116 23 57 14 67 14 130 -2 37 -9 100 -19 140 -22 58 -5 72 -9 72
-22 0 -10 4 -21 9 -27 6 -5 0 -54 -15 -124 -13 -63 -25 -122 -27 -130 -1 -11
9 -15 43 -15 l45 0 24 127 c24 120 26 127 47 122 13 -3 28 1 38 11 16 16 18
16 35 1 22 -20 35 -20 54 -1 17 16 16 21 35 -185 l7 -75 45 0 45 0 -3 35 c-1
19 -7 76 -13 127 -9 72 -9 98 2 121 12 28 16 30 88 35 42 3 106 13 143 22 64
17 71 16 140 -1 92 -24 257 -24 343 -1 56 15 65 15 120 0 84 -24 249 -23 343
1 70 18 74 18 145 0 93 -24 248 -24 335 -1 59 17 65 17 125 0 85 -23 249 -23
343 1 67 17 75 17 134 2 35 -9 96 -19 136 -23 71 -6 72 -6 78 -37 3 -17 -3
-74 -14 -126 -11 -52 -20 -110 -20 -127 0 -31 2 -33 34 -33 37 0 38 3 51 70 4
19 16 70 27 112 19 72 22 77 43 72 14 -3 28 1 39 11 15 15 17 15 32 1 20 -21
38 -20 60 1 16 17 17 10 10 -125 l-7 -143 48 3 48 3 3 130 c1 71 7 134 12 139
6 6 10 17 10 27 0 13 14 17 78 22 42 3 107 13 145 22 65 17 71 17 140 -1 94
-24 258 -24 343 -1 57 16 65 16 120 0 85 -23 250 -23 342 1 70 18 74 18 145 0
92 -24 257 -25 342 -1 56 15 64 15 120 0 85 -24 249 -23 343 1 69 17 76 17
140 1 37 -9 97 -19 134 -22 62 -5 67 -8 71 -32 3 -15 -9 -76 -29 -142 -44
-149 -44 -151 3 -147 l36 3 42 125 42 125 32 0 c17 0 36 6 40 14 8 12 12 12
26 -2 19 -20 29 -21 57 -6 21 11 21 10 14 -77 -4 -48 -11 -107 -15 -131 -5
-23 -6 -45 -3 -48 3 -3 24 -5 48 -5 31 0 44 5 49 18 4 9 9 72 12 140 3 67 9
122 14 122 4 0 10 8 14 19 4 15 19 19 83 24 42 3 107 13 144 22 64 17 71 16
140 -1 92 -24 257 -24 342 -1 55 16 63 16 120 0 84 -23 249 -23 343 1 70 18
74 18 145 0 94 -24 249 -24 336 -1 58 17 66 17 125 1 85 -24 231 -24 332 0 76
17 84 17 145 2 36 -9 100 -20 143 -23 73 -6 78 -7 92 -36 12 -25 35 -196 35
-270 0 -15 7 -18 38 -15 l37 3 -3 128 -3 128 24 -6 c15 -4 28 -1 36 9 11 14
15 14 38 -1 19 -13 29 -14 43 -5 23 14 30 -4 55 -138 9 -52 19 -101 21 -107 4
-15 70 -18 78 -4 6 9 -18 167 -33 219 -6 19 -8 46 -5 62 6 26 9 28 77 33 40 3
102 13 139 22 64 17 71 16 140 -1 93 -24 258 -25 343 -1 56 15 65 15 120 0 85
-23 251 -23 343 1 70 18 74 18 145 0 91 -24 256 -24 342 -1 56 15 65 15 120 0
85 -24 249 -23 343 1 69 17 76 18 140 1 37 -9 100 -19 140 -22 58 -5 72 -9 72
-22 0 -10 4 -21 9 -26 5 -6 1 -57 -10 -125 -26 -159 -27 -150 25 -150 l44 0
11 74 c6 41 14 99 17 130 6 53 8 55 31 50 15 -4 30 0 42 10 16 15 19 15 31 1
15 -18 41 -20 58 -3 6 6 13 10 15 7 2 -2 10 -62 18 -134 l14 -130 39 -3 c21
-2 42 0 46 5 4 4 1 58 -7 118 -8 61 -12 128 -8 151 l6 41 74 6 c40 3 105 13
144 22 65 16 75 16 134 2 35 -9 89 -19 121 -23 l56 -7 0 87 0 86 -57 -1 c-32
-1 -87 -8 -123 -17 -61 -16 -69 -16 -135 0 -38 10 -94 18 -122 18 -67 0 -67 0
-8 164 l44 126 -48 0 -49 0 -30 -83 c-17 -45 -35 -102 -41 -125 -10 -37 -15
-41 -35 -36 -14 3 -27 -1 -35 -10 -12 -14 -15 -14 -36 0 -24 16 -65 11 -65 -7
0 -5 -14 -3 -30 6 -22 11 -35 13 -49 6 -17 -9 -20 -6 -26 34 -3 25 -5 84 -4
133 l2 87 -48 3 -48 3 6 -150 5 -151 -61 -1 c-34 0 -93 -8 -132 -17 -66 -16
-73 -16 -140 1 -83 22 -256 19 -346 -6 -52 -15 -61 -15 -130 3 -93 25 -238 25
-329 2 -61 -16 -69 -16 -140 0 -100 24 -235 23 -329 -2 -69 -18 -78 -18 -130
-3 -90 25 -263 28 -346 6 -67 -17 -74 -17 -140 -1 -39 9 -96 17 -127 17 -32 1
-58 2 -58 4 0 1 7 65 15 141 8 76 13 142 10 145 -2 4 -22 5 -44 3 l-40 -4 -6
-66 c-16 -173 -17 -177 -48 -177 -16 -1 -32 -7 -37 -15 -7 -11 -11 -10 -25 3
-20 21 -39 22 -55 2 -10 -12 -15 -12 -35 1 -18 12 -28 13 -44 5 -11 -6 -22
-11 -24 -11 -2 0 -7 46 -11 103 -11 166 -11 167 -58 167 l-40 0 8 -117 c4 -65
8 -131 8 -148 l1 -30 -85 -7 c-47 -3 -107 -12 -135 -20 -44 -12 -59 -11 -120
4 -95 24 -229 23 -327 -2 -77 -19 -79 -19 -155 0 -96 24 -241 25 -333 2 -61
-16 -69 -16 -135 0 -94 24 -230 23 -327 -2 -77 -19 -77 -19 -160 2 -67 17
-101 19 -187 15 -59 -3 -128 -11 -156 -19 -44 -11 -58 -11 -115 4 -36 9 -95
17 -132 17 l-67 1 6 38 c2 20 16 83 29 140 13 57 24 107 24 110 0 4 -22 5 -50
4 -56 -4 -52 2 -75 -122 -26 -140 -23 -131 -48 -124 -15 3 -28 0 -36 -10 -12
-14 -15 -14 -36 0 -24 16 -65 11 -65 -7 0 -5 -14 -3 -30 6 -23 12 -35 13 -50
5 -15 -8 -21 -8 -25 2 -5 14 -55 244 -55 253 0 3 -22 5 -50 5 -27 0 -50 -2
-50 -6 0 -3 16 -68 35 -144 19 -76 35 -141 35 -144 0 -4 -24 -6 -52 -6 -29 0
-84 -8 -122 -18 -65 -17 -72 -17 -135 0 -91 23 -236 23 -330 -2 -74 -19 -75
-19 -155 0 -100 24 -236 25 -326 2 -61 -16 -69 -16 -140 0 -100 24 -227 23
-324 -2 -76 -19 -77 -19 -154 0 -98 25 -233 26 -328 2 -68 -17 -74 -17 -140 0
-38 10 -97 18 -131 18 l-62 0 6 148 6 147 -39 -1 -39 -1 -7 -93 c-9 -136 -16
-162 -37 -155 -9 3 -26 -1 -36 -9 -16 -12 -22 -12 -42 1 -20 14 -26 14 -46 0
-20 -13 -25 -13 -45 1 -19 13 -25 13 -47 -2 -25 -16 -25 -16 -26 16 -1 18 -4
80 -8 138 l-6 105 -44 3 -44 3 6 -150 5 -151 -56 -1 c-31 -1 -86 -8 -122 -17
-61 -16 -69 -16 -135 0 -95 24 -230 23 -327 -2 -77 -19 -78 -19 -154 0 -95 25
-241 25 -334 2 -61 -16 -69 -16 -135 0 -95 24 -230 23 -327 -2 -77 -19 -78
-19 -154 0 -98 25 -234 26 -328 2 -65 -17 -72 -17 -135 0 -36 9 -99 17 -138
17 l-73 1 0 145 0 145 -40 0 -40 0 0 -87 c0 -123 -8 -165 -30 -158 -9 3 -23
-1 -30 -10 -11 -13 -15 -13 -33 0 -27 19 -32 19 -51 0 -14 -14 -18 -14 -41 1
-24 15 -27 15 -44 0 -17 -15 -18 -11 -30 101 -17 169 -15 163 -58 163 l-36 0
7 -97z"/>
<path d="M1845 5568 c21 -91 55 -249 55 -257 0 -6 -20 -11 -43 -11 -24 0 -79
-9 -123 -20 l-79 -20 -93 21 c-104 24 -233 23 -330 -4 -48 -13 -59 -12 -135 6
-96 22 -233 20 -331 -7 -56 -16 -64 -16 -125 1 -84 23 -281 23 -358 1 -46 -13
-60 -13 -105 -1 -29 7 -81 16 -115 20 l-63 6 0 -88 0 -88 58 7 c31 4 84 14
116 22 55 14 64 14 120 -2 83 -25 279 -26 355 -1 51 16 57 16 110 0 79 -25
264 -24 351 0 62 18 69 18 125 2 98 -26 246 -30 338 -7 72 18 84 18 130 6 29
-8 91 -17 139 -21 l87 -6 6 -41 c3 -23 1 -72 -4 -111 -6 -38 -11 -91 -11 -117
l0 -48 39 0 c45 0 42 -6 55 148 9 96 15 114 38 106 11 -3 27 1 37 10 16 15 19
15 31 1 15 -18 41 -20 57 -4 13 13 17 -6 28 -115 3 -33 10 -79 16 -103 11 -43
12 -43 55 -43 24 0 44 3 44 8 0 4 -5 27 -11 52 -6 25 -14 80 -19 124 -6 65 -5
83 9 107 15 27 20 29 81 29 36 0 100 9 142 19 76 18 80 18 155 0 101 -24 207
-24 312 1 l85 21 94 -22 c104 -24 231 -22 329 5 47 13 59 12 110 -2 81 -23
267 -22 351 1 62 18 66 18 159 -4 105 -24 231 -23 330 4 46 13 59 13 130 -4
43 -10 105 -19 138 -19 60 0 61 -1 73 -33 7 -19 10 -47 8 -63 -3 -16 -8 -73
-11 -126 l-5 -98 43 0 44 0 7 61 c3 34 6 83 6 108 0 69 8 90 31 84 11 -3 28 2
38 11 16 15 19 15 31 1 15 -18 41 -20 58 -3 14 14 15 11 37 -102 31 -163 30
-160 79 -160 l43 0 -8 43 c-4 23 -17 84 -27 135 -11 51 -16 95 -11 98 5 3 9
13 9 23 0 16 12 19 93 24 50 3 114 13 142 22 45 14 54 14 105 -2 78 -24 263
-24 350 0 62 18 69 18 125 2 98 -26 246 -30 338 -7 72 18 84 18 130 5 98 -27
225 -28 329 -4 l94 22 85 -21 c105 -25 211 -25 312 -1 71 17 84 17 130 5 29
-8 91 -17 138 -21 86 -6 86 -6 97 -38 7 -17 12 -57 12 -89 0 -31 5 -88 11
-127 l12 -69 39 0 39 0 -8 68 c-4 37 -8 94 -8 127 0 59 0 60 27 57 17 -2 30 3
36 14 9 17 11 17 27 1 19 -19 29 -21 54 -8 15 9 19 2 29 -57 6 -37 20 -97 32
-134 l21 -68 39 0 c22 0 40 2 40 5 0 3 -9 37 -19 77 -29 106 -35 162 -22 201
l12 34 92 6 c51 4 116 13 144 21 47 13 59 12 110 -2 81 -23 267 -22 351 1 62
18 66 18 159 -4 105 -24 231 -23 330 4 46 13 58 13 130 -5 92 -23 240 -19 338
7 56 16 63 16 125 -2 86 -24 272 -24 348 0 51 16 57 15 135 -3 45 -11 110 -20
144 -20 l62 0 6 -42 c4 -24 -1 -86 -9 -140 -23 -142 -24 -138 27 -138 l43 0
18 130 c18 129 19 130 43 124 15 -4 30 0 42 10 16 15 19 15 31 1 15 -18 41
-20 57 -4 13 13 17 -5 34 -153 l12 -108 49 0 c49 0 49 0 44 28 -24 116 -35
229 -24 260 12 31 13 32 73 32 33 0 97 9 142 20 78 18 84 19 135 3 76 -24 262
-24 348 0 62 18 69 18 125 2 98 -26 246 -30 338 -7 72 18 84 18 130 5 99 -27
225 -28 330 -4 90 21 98 21 155 6 33 -8 88 -18 121 -21 l61 -7 0 88 0 88 -67
-6 c-38 -3 -92 -12 -121 -20 -47 -13 -60 -12 -130 5 -92 23 -254 20 -340 -7
-51 -15 -57 -15 -148 6 -106 24 -234 23 -332 -4 -47 -13 -60 -12 -130 4 -101
25 -213 24 -316 -1 -78 -20 -86 -20 -142 -5 -32 9 -92 19 -133 22 l-73 6 5 36
c3 20 9 84 13 144 l7 107 -47 0 -46 0 0 -48 c0 -27 -3 -83 -6 -125 -7 -75 -8
-77 -33 -77 -15 0 -32 -5 -39 -12 -9 -9 -15 -9 -24 0 -17 17 -57 15 -64 -3 -5
-13 -8 -13 -21 0 -17 17 -54 20 -69 5 -6 -6 -14 19 -22 73 -7 45 -20 106 -28
135 l-15 52 -46 0 c-42 0 -45 -2 -39 -22 7 -24 40 -181 49 -234 l6 -31 -72 -6
c-40 -3 -99 -13 -131 -22 -56 -15 -64 -15 -142 5 -103 25 -215 26 -316 1 -70
-16 -83 -17 -130 -4 -98 27 -226 28 -332 4 -91 -21 -97 -21 -148 -6 -86 27
-248 30 -340 7 -71 -17 -82 -18 -130 -5 -95 26 -232 28 -331 4 -85 -20 -92
-20 -150 -5 -34 9 -98 19 -142 23 l-80 6 -12 140 c-6 77 -12 141 -12 143 -1 1
-22 2 -47 2 l-47 0 7 -57 c3 -32 9 -88 12 -125 l7 -68 -31 0 c-17 0 -32 -6
-35 -12 -4 -10 -7 -10 -18 0 -15 14 -55 16 -63 3 -4 -5 -19 -5 -36 2 -22 9
-35 9 -48 0 -16 -10 -22 2 -62 119 -23 71 -49 132 -56 135 -6 2 -25 3 -42 1
l-29 -3 43 -130 c23 -71 43 -136 43 -142 1 -8 -13 -13 -36 -13 -21 0 -75 -9
-120 -20 -83 -20 -83 -20 -165 0 -104 25 -220 25 -316 1 -71 -17 -75 -17 -150
0 -101 25 -213 24 -316 -1 l-82 -21 -85 21 c-105 25 -211 25 -311 1 -76 -18
-79 -18 -160 1 -96 23 -233 20 -334 -7 -55 -14 -65 -14 -120 0 -32 9 -90 19
-128 22 l-68 6 6 51 c5 47 37 181 52 220 5 13 -2 16 -43 16 -49 0 -50 -1 -61
-37 -6 -21 -19 -77 -29 -125 -17 -83 -19 -88 -43 -88 -14 0 -31 -5 -38 -12 -9
-9 -15 -9 -24 0 -15 15 -50 16 -65 1 -8 -8 -13 -8 -17 0 -9 14 -59 14 -72 1
-14 -14 -27 160 -18 220 l7 40 -48 0 -47 0 4 -144 3 -144 -70 -5 c-38 -3 -97
-13 -131 -22 -55 -14 -65 -14 -120 1 -98 27 -235 29 -331 7 -76 -18 -87 -19
-135 -6 -95 26 -232 28 -331 4 l-87 -21 -83 20 c-101 24 -226 25 -322 1 -66
-16 -74 -16 -145 1 -99 23 -215 23 -317 -2 -83 -20 -83 -20 -165 0 -46 11
-111 20 -144 20 l-62 0 -7 128 c-3 70 -7 134 -8 142 -2 11 -17 16 -51 18 l-49
3 7 -93 c4 -51 9 -108 12 -125 6 -31 5 -33 -24 -33 -17 0 -32 -6 -35 -12 -4
-10 -7 -10 -18 0 -16 14 -55 16 -64 2 -4 -7 -12 -7 -25 0 -25 14 -60 13 -60
-2 0 -26 -11 3 -30 78 -49 190 -47 184 -85 184 -32 0 -35 -2 -30 -22z"/>
</g>
</svg>
